<?xml version="1.0" encoding="utf-8"?>
<!-- Generator: Adobe Illustrator 16.0.0, SVG Export Plug-In . SVG Version: 6.00 Build 0)  -->
<!DOCTYPE svg PUBLIC "-//W3C//DTD SVG 1.1//EN" "http://www.w3.org/Graphics/SVG/1.1/DTD/svg11.dtd">
<svg version="1.1" id="Layer_1" xmlns="http://www.w3.org/2000/svg" xmlns:xlink="http://www.w3.org/1999/xlink" x="0px" y="0px"
	 width="1718.9px" height="419px" viewBox="0 0 1718.9 419" enable-background="new 0 0 1718.9 419" xml:space="preserve">
<rect width="1718.9" height="419"/>
<g>
	<path fill="#FF7F00" d="M1696.3,181.7h-3.399v-3.1h10.5v3.1h-3.4v9h-3.7V181.7z"/>
	<path fill="#FF7F00" d="M1704.8,178.6h5.3l1.7,7.1l0,0l1.7-7.1h5.3v12.1h-3.5V183l0,0l-2.1,7.8h-2.8l-2.101-7.8l0,0v7.8h-3.5V178.6
		z"/>
</g>
<g>
	<g>
		<path fill="#F4FFFF" d="M98.3,20c0,1.1,0,2.1,0,3.2c0.2,0,0.4,0.1,0.6,0.1c0.3-0.4,0.6-0.8,0.9-1.2c1.1-1.4,3.2-1.4,4.4,0
			c0.5,0.5,1.1,1.1,1.8,1.3c2.5,0.5,4.9,1.7,7.7,0.9c2-0.6,2.9,0.6,2.7,2.8c-0.1,0.9,0,1.8,0,3c2.5-0.3,4.1,1,5.9,2.4
			c1.3,1,3.4,0.8,5.2,1.2c3,0.6,6,1.1,9.3,1.8c-0.9-1.9-1.2-3.4,0.5-4.3c0.6-0.3,1.8-0.1,2.2,0.4c1.2,1.3,0.4,2.6-0.6,3.7
			c3.5,1.6-0.1,4,0.9,6.2c2.6,0.4,5.4,0.9,8.3,1.2c1.3,0.2,2,0.7,1.6,2.1c-0.3,1.3-1,1.7-2.3,1.2c-2.3-0.8-4.7-1.6-7-2.3
			c-0.3-0.1-0.7-0.3-1-0.2c-3.4,1.9-6.6-0.2-9.9-0.5c-1.1-0.1-2.1-0.4-3.1-0.6c-1.1-0.2-2-0.3-2.8,0.9c-0.3,0.5-1.2,0.8-1.9,0.9
			c-1.6,0.3-3.3,0.6-5,0.5c-2-0.1-2.6,0.9-2.7,2.6c0,2.4,0,4.8,0,7.5c0.1-0.1,0,0-0.2,0.1c-5.3,2-5.4,1.9-6.1-3.5
			c0-0.2-0.1-0.5-0.2-0.8c-4.4,2.3-7.3,5.6-7.4,10.7c-0.1,1.9,0.2,3.9,0.1,5.8c-0.1,2.3,0.3,4.2,1.9,6c1.4,1.6,2,3.8,3.3,5.5
			c2.5,3.3,5.3,6.4,8,9.5c3.4,3.8,6.8,7.5,7.4,12.8c0.2,1.3,0.4,2.7,0.2,4c-1,5.5,0.7,10.8,0.8,16.2c0,1.6-0.5,2.6-1.7,3.8
			c-1.8,1.8-2.1,4.3-1.6,6.7c0.6,3.6,2.3,6.7,5.7,8.6c0.8,0.5,1.5,1.2,2.3,1.6c3.1,1.4,3.2,4.5,4.2,7.1c0.6,1.6-0.5,2.9-1.9,3.2
			c-2,0.4-4.3,0.9-6.2,0.4c-3.3-0.8-6-2.5-7.4-6c-0.4-1.1-2.1-2.2-3.4-2.5c-3-0.7-5-3.3-4.7-6.3c0.3-2.7,0.4-5.4,0.5-8.1
			c0-0.5-0.2-1.2-0.6-1.4c-2-1.4-1.6-3.3-1.4-5.2c0.1-0.5,0.2-1.3-0.1-1.6c-2.1-2.5-1.7-5.1-0.4-7.7c0.8-1.7,0.5-2.7-1.1-3.5
			c-2.4-1.1-3.2-3.1-2.6-5.6c0.2-1-0.1-1.5-1-2c-2.7-1.5-5.4-3.2-7.1-6c-0.3-0.5-0.8-0.9-1.3-1.3c-2.8-2.2-5.7-4.4-8.5-6.6
			c-2.3-1.8-3.2-1.3-5.1,0.7c-2.7,2.8-5.8,5.1-8.8,7.5c-1.7,1.3-3.5,2.4-5.2,3.6c-0.8,0.6-1.6,1.3-2.5,1.7c-1.7,0.8-3.2,1.8-3.6,3.9
			c-0.1,0.7-1.1,1.3-1.8,1.7c-1.8,1.1-3.6,2-5.5,3c-1.8,1-3.1,2.3-4,4.3c-1,2.2-2.9,3.8-5.4,4.7c0,1.3,0,2.8,0,4.3
			c-0.1,2.8-0.9,3.7-3.6,4.4c-0.8,0.2-1.9,1.2-2,1.9c-0.4,3.1-2.5,4.4-4.9,4.7c-2.8,0.3-5.7-0.1-8.5-0.4c-1.2-0.1-1.7-1-1.4-2.2
			c0.6-2.5,1.4-4.6,3.9-6.2c2.5-1.6,4.5-3.9,6.5-6.2c0.7-0.9,0.9-2.4,0.9-3.7c-0.1-2.1,0.3-3.9,2-5.1c1.9-1.4,2.8-3.1,2.5-5.5
			c-0.2-1.7,0.6-3,2.1-3.8c0.8-0.5,1.6-1,2.4-1.4c1.8-0.9,3.4-1.7,3.7-4.2c0.2-1.4,1.5-2.7,2.4-3.9c1.6-2,3.2-3.9,4.9-6
			c-1.3-1.5-0.8-2.9,0.2-4.4c1.7-2.4,3.4-4.8,4.9-7.3c0.5-0.8,0.5-2,0.3-2.8c-0.6-1.9,0.5-2.9,1.9-3.5c0.7-0.3,1.8,0.1,2.7,0.1
			c0.1,0.2,0.1,0.4,0.2,0.7c1.8-1.6,3.8-2.9,5.2-4.8c0.8-1.1,0.5-3,0.7-4.5c0.2-1.5,0.4-2.6-0.8-4.1c-1.1-1.4-1-3.8-1.3-5.7
			c-0.2-1.5-0.3-3-0.5-4.9c-2.3,0.4-4.4,1-6.5,1.2c-3,0.2-6.1,0.4-9.1,0.2c-2.9-0.2-4.6-5.7-2.7-8.3c1.4-1.9,2.5-4,4.2-5.6
			c2-1.9,4.3-3.3,6.6-4.8c1.6-1.1,3.2-2.3,4.9-3.1c3.2-1.4,6.4-2.8,9.8-3.8c2.7-0.8,2.8-0.6,5.1-3c-1.6-0.8-2.7-1.9-2.5-3.9
			c0-0.4-0.6-0.9-1-1.4c0.4-0.4,0.8-0.8,0.8-0.9c-0.3-1.2-0.6-2-0.5-2.8C75,8.2,76,8,76.7,7.9c2.3-3,4-6.7,8.2-7.9
			c2.1,0,4.3,0,6.4,0c0,0.1,0.1,0.1,0.1,0.2c7.5,2.9,9.1,5.3,9.1,13.5c0,1.8,0.6,3.8-1.9,4.6C98.4,18.4,98.4,19.5,98.3,20
			c-0.1-0.4-0.1-0.9-0.1-1.6c-4.7,1.8-8.9,0.3-13.3-1.1c0.2,2,1.3,3.1,2.7,4.1c3.1,2.1,5.1,0.2,7.1-1.9c0.8,1,1.4,1.7,2.1,2.5
			C97.5,21.2,97.9,20.6,98.3,20z"/>
		<path fill="#F4FFFF" d="M997.4,123.5c0.8-5.8,1.6-11.2,2.399-16.7c0.9,0,1.7,0,2.5,0c18.2,0,36.5-0.1,54.7,0.1
			c4.2,0,4.3-1.8,3.7-5.3c-0.101-0.7-1.8-1.6-2.8-1.6c-4.9-0.2-9.801-0.1-14.7-0.1c-10.601,0-21.2,0-31.8,0c-9,0-16.4-7.3-16.5-16.3
			c0-3.4-0.101-6.9,0.3-10.2c1-7.5,8-13.6,15.6-13.7c21.8-0.1,43.601,0,65.4,0c0.399,0,0.8,0.1,1.399,0.1
			c-0.8,5.6-1.6,11-2.399,16.6c-1,0-1.7,0-2.5,0c-19.2,0-38.3,0-57.5,0c-3.2,0-5,2.8-3.3,5.5c0.5,0.7,1.899,1.2,2.899,1.3
			c6.101,0.1,12.2,0.1,18.3,0.1c9.2,0,18.4,0,27.601,0c8.899,0.1,15.7,5.9,16.8,14.7c0.4,3.8,0.4,7.8-0.2,11.6
			c-1.1,7.9-7.3,13.3-15.399,13.9c-0.7,0.1-1.5,0.1-2.2,0.1c-20,0-40,0-59.9,0C999.2,123.5,998.4,123.5,997.4,123.5z"/>
		<path fill="#F4FFFF" d="M380.6,107.4c4.4-7,8.601-13.7,12.801-20.3c5.5-8.7,11-17.4,16.399-26.2c0.8-1.3,1.601-1.7,3-1.6
			c5.3,0.1,10.601,0,16,0c0,21.4,0,42.5,0,63.8c-5.399,0-10.8,0-16.399,0c0-11.3,0-22.7,0-34.1c-0.101,0-0.2-0.1-0.4-0.1
			c-0.4,0.6-0.8,1.1-1.2,1.7c-6.5,10.4-13.1,20.7-19.5,31.1c-0.7,1.2-1.5,1.6-2.899,1.6c-5.301-0.1-10.601-0.1-15.9,0
			c-1.5,0-2.3-0.5-3-1.7c-6.4-10.3-13-20.6-19.5-30.9c-0.3-0.5-0.7-1-1.3-2c0,11.7,0,23,0,34.4c-5.7,0-11.101,0-16.9,0
			c0-0.7,0-1.4,0-2.2c0-19.8,0-39.5,0-59.3c0-1.9,0.5-2.4,2.4-2.3c4.6,0.1,9.2,0.1,13.899,0c1.4,0,2.301,0.4,3.101,1.7
			c9.2,14.8,18.5,29.5,27.8,44.2C379.5,105.8,380,106.4,380.6,107.4z"/>
		<path fill="#F4FFFF" d="M241.7,59.3c0.8,0,1.5,0,2.2,0c21,0,42.1,0,63.1,0c10,0,17.3,7.2,17.3,17.2c0,9.9,0,19.7,0,29.6
			c0,9.6-6.5,16.9-16,17.1c-17.2,0.3-34.3,0.2-51.5-0.1c-8.2-0.1-15.2-7.3-15.3-15.5c-0.2-15.8-0.1-31.5,0-47.3
			C241.5,60,241.6,59.7,241.7,59.3z M258.4,76c-0.1,0.4-0.2,0.6-0.2,0.8c0,9,0,18.1,0,27.1c0,1.9,0.8,2.6,3,2.6
			c14.4,0,28.8,0,43.2,0c2.4,0,3.1-0.7,3.1-3.1c0-8,0-16.1,0-24.1c0-2.7-0.6-3.3-3.4-3.3c-9.6,0-19.3,0-28.9,0
			C269.7,76,264.1,76,258.4,76z"/>
		<path fill="#F4FFFF" d="M697.8,123c0-21.2,0-42.4,0-63.8c3,0,6,0.3,8.8-0.1c5.601-0.7,9.601,1.4,13.801,5
			c13.899,12.2,28.1,24,42.199,36c0.2,0.2,0.5,0.4,1.101,0.9c0-1,0-1.7,0-2.4c0-12.3,0.1-24.7-0.101-37c0-2.1,0.601-2.6,2.601-2.5
			c3.899,0.2,7.899,0,11.899,0c0.7,0,1.4,0,2.2,0c0,21.4,0,42.6,0,64c-3.8,0-7.6-0.3-11.3,0.1c-3.9,0.4-6.6-1.1-9.5-3.5
			c-14.4-12.4-28.9-24.7-43.4-37c-0.399-0.4-0.899-0.7-1.699-1.3c0,14.1,0,27.8,0,41.6C708.8,123,703.3,123,697.8,123z"/>
		<path fill="#F4FFFF" d="M872.6,123.2c-0.8,0-1.3,0-1.899,0c-21.2,0-42.4,0-63.601,0c-8.399,0-14.8-4.8-16.8-12.5
			c-0.3-1.3-0.5-2.6-0.5-4c0-15.1,0-30.2-0.1-45.3c0-1.6,0.3-2.2,2.1-2.2c26.3,0.1,52.7,0,79,0c0.5,0,0.9,0,1.7,0
			c-0.8,5.6-1.6,11.1-2.4,16.7c-21.199,0-42.3,0-63.699,0c0,0.8,0,1.4,0,2.1c0,8.4,0,16.8,0,25.1c0,2.8,0.6,3.4,3.5,3.4
			c19.3,0,38.6,0,57.899,0c1.9,0,2.5,0.5,2.7,2.4c0.4,4.2,1.2,8.3,1.8,12.5C872.5,121.9,872.5,122.4,872.6,123.2z"/>
		<path fill="#F4FFFF" d="M542.3,59.4c-0.8,5.7-1.6,11.1-2.399,16.6c-21.2,0-42.301,0-63.5,0c-0.101,0.7-0.101,1.3-0.101,1.9
			c0,8.4,0,16.8,0,25.1c0,3,0.5,3.5,3.5,3.5c19.3,0,38.601,0,57.9,0c1.8,0,2.399,0.5,2.6,2.3c0.5,4.7,1.3,9.4,2,14.4
			c-0.8,0-1.5,0.1-2.2,0.1c-21,0-42.1,0-63.1,0c-10.5,0-17.5-7.1-17.5-17.5c0-14.6,0-29.2,0-43.8c0-0.8,0-1.6,0-2.5
			C487.2,59.4,514.6,59.4,542.3,59.4z"/>
		<path fill="#F4FFFF" d="M671.2,123.1c0-5.5,0-10.9,0-16.5c-0.8,0-1.4,0-2.101,0c-12.1,0-24.1,0-36.199,0c-1.4,0-2.2,0.4-2.9,1.6
			c-2.9,4.6-5.8,9.1-8.8,13.7c-0.4,0.6-1.3,1.3-1.9,1.3c-6,0.1-11.899,0.1-17.899,0c-0.2,0-0.4-0.1-0.801-0.2
			c2.101-3.3,4.2-6.6,6.301-9.8C616,99.1,625.1,84.9,634.1,70.8c3.601-5.6,8.301-9.8,15.101-11c1.6-0.3,3.2-0.5,4.8-0.5
			c10.7,0,21.5,0,32.2,0c0.5,0,1,0.1,1.6,0.2c0,21.3,0,42.4,0,63.7C682.3,123.1,676.9,123.1,671.2,123.1z M641.7,89.9
			c10.2,0,19.7,0,29.399,0c0-4.6,0-9.2,0-13.8c-6.199,0-12.399,0-18.5,0.1c-0.8,0-2,0.6-2.399,1.2C647.3,81.4,644.6,85.5,641.7,89.9
			z"/>
		<path fill="#F4FFFF" d="M184,76c-11.2,0-22,0-33,0c0-5.6,0-11.1,0-16.6c27.5,0,55,0,82.5,0c0,5.5,0,11,0,16.6
			c-10.9,0-21.7,0-32.9,0c0,15.8,0,31.4,0,47.2c-5.7,0-11.1,0-16.7,0C184,107.5,184,91.9,184,76z"/>
		<path fill="#F4FFFF" d="M963.3,59.3c-2.6,3.1-4.8,5.8-7.1,8.5c-8.4,10-16.8,20-25.101,30.1c-0.6,0.7-0.899,1.8-0.899,2.7
			c-0.101,7.4,0,14.9,0,22.5c-5.5,0-10.9,0-16.5,0c0-0.6-0.101-1.3-0.101-2.1c0-6.6-0.1-13.1,0-19.7c0-1.8-0.6-3-1.699-4.3
			C901.8,84.9,891.7,72.9,881.6,60.8c-0.3-0.4-0.6-0.7-1.199-1.5c1,0,1.6,0,2.199,0c5.801,0,11.7,0,17.5,0c1.4,0,2.301,0.4,3.2,1.5
			c5.7,6.9,11.5,13.8,17.3,20.7c0.4,0.5,0.801,0.9,1.2,1.4c6.3-7.5,12.5-14.9,18.7-22.3c0.5-0.6,1.4-1.2,2.1-1.2
			C949.3,59.2,956,59.3,963.3,59.3z"/>
		<path fill="#F4FFFF" d="M606.4,106.4c-3.101,5-6,9.5-8.601,14.1c-1.2,2.1-2.5,2.8-4.899,2.7c-13.4-0.1-26.801-0.1-40.2-0.1
			c-0.8,0-1.601,0-2.601,0c0-1,0-1.7,0-2.4c0-19.7,0-39.4,0-59.1c0-1.9,0.5-2.5,2.5-2.4c4.7,0.1,9.4,0,14.2,0c0,15.8,0,31.4,0,47.2
			C579.9,106.4,592.9,106.4,606.4,106.4z"/>
		<path fill="#F4FFFF" d="M966.1,78.4c0-3.6,0-7,0-10.3c0-0.4,0.2-0.8,0.4-1.1c2-2.4,3.9-4.7,5.9-7.1c0.3-0.3,0.8-0.6,1.199-0.6
			c6.9,0,13.801,0,21.101,0c-0.9,1.1-1.5,1.9-2.2,2.7c-4.2,5-8.4,10.1-12.6,15.1c-0.801,1-1.601,1.4-2.9,1.3
			C973.5,78.4,969.9,78.4,966.1,78.4z"/>
	</g>
	<g>
		<path fill="#F4FFFF" d="M1.9,115H0v-1.8h6v1.8H4.1v5.1H1.9V115z"/>
		<path fill="#F4FFFF" d="M6.8,113.2h3l1,4.1l0,0l1-4.1h3v6.9h-2v-4.4l0,0l-1.2,4.4H10l-1.2-4.4l0,0v4.4h-2V113.2z"/>
	</g>
</g>
<g>
	<polygon fill="#FF7F00" points="727.8,289.8 794.5,289.8 830.9,178.6 758.5,178.6 	"/>
	<rect x="839.1" y="178.6" fill="#FF7F00" width="71.9" height="111.2"/>
	<rect x="839.1" y="301.7" fill="#FF7F00" width="71.9" height="111.2"/>
	<path fill="#FF7F00" d="M954.9,301.7c36.899,26.7,100.199,21.8,100.199,46.7c0,11-11.899,17.1-29.8,17.1c-7,0-14.6-1.9-20.399-5.8
		c-6.101-3.9-10.4-10-11.9-18.4h-68.8c1.5,41.9,39.3,77.7,97.1,77.7c60.3,0,102.601-26.1,102.601-80c0-15.8-4.4-27.9-11.601-37.3
		H954.9L954.9,301.7z"/>
	<path fill="#FF7F00" d="M1102.9,289.8c-35.9-29.899-105-24.8-105-50.6c0-8.4,7-13.2,22.8-13.2c7,0,13.399,1.3,18.6,4.2
		c5.2,2.899,9.101,7.8,10.3,15.8h68.2c-5.2-40.6-32.899-73.5-93.8-73.5c-54.8,0-95,24.8-95,74.2c0,19,5.8,32.8,14.9,43.1H1102.9z"/>
	<rect x="1137.2" y="301.7" fill="#FF7F00" width="71.899" height="111.2"/>
	<rect x="1137.2" y="178.6" fill="#FF7F00" width="71.899" height="111.2"/>
	<path fill="#FF7F00" d="M1337.2,362.3c-32,0-41.601-32.2-42.8-60.6h-71.9c2.6,74.8,47.9,117.3,114.7,117.3
		c63.199,0,112.399-42.2,115-117.3h-71.9C1379,336.9,1366.5,362.3,1337.2,362.3z"/>
	<path fill="#FF7F00" d="M1337.2,172.5c-67.3,0-113.5,46.1-114.7,117.3h71.9c0.8-28.5,11-60.6,42.3-60.6
		c30.399-0.9,42.899,30.1,43.8,60.6h71.8C1450.8,229.9,1413.9,172.5,1337.2,172.5z"/>
	<polygon fill="#FF7F00" points="1609.3,178.6 1609.3,252.5 1611.2,289.8 1678.1,289.8 1678.1,178.6 	"/>
	<polygon fill="#FF7F00" points="1466.5,301.7 1466.5,412.9 1535.3,412.9 1535.3,339.4 1533.3,301.7 	"/>
	<polygon fill="#FF7F00" points="1602.4,289.8 1533.7,178.6 1466.5,178.6 1466.5,289.8 1515.5,289.8 1530.8,289.8 1532.8,289.8 
		1533.9,289.8 1535.9,289.8 1565,289.8 	"/>
	<path fill="#FF7F00" d="M379.3,172.5h-33.7c0,0-16,58.4-32.399,117.3H345.6V230h23c65.2,0,78.301,26.6,78.301,57.9
		c0,0.6,0,1.199,0,1.8l68.5,0.1c0.1-2,0.199-4,0.199-6C515.5,235.4,478.8,172.5,379.3,172.5z"/>
	<path fill="#FF7F00" d="M370.2,350.6h-24.5V301.7H315.1H314.4h-4C297.8,347.1,283.7,397,278.8,412.9h96.9
		c82.5,0,131-56.7,138.7-111.2H445.6C440.2,327.2,416.2,349.1,370.2,350.6z"/>
	<rect x="527.8" y="178.6" fill="#FF7F00" width="71.9" height="111.2"/>
	<rect x="527.8" y="301.7" fill="#FF7F00" width="71.9" height="111.2"/>
	<polygon fill="#FF7F00" points="718.6,325.3 712.3,301.7 646.8,301.7 682.6,412.9 754.8,412.9 791.3,301.7 725.1,301.7 	"/>
	<polygon fill="#FF7F00" points="680.2,178.6 607.7,178.6 643.6,289.8 709.7,289.8 	"/>
	<polygon fill="#FF7F00" points="16.2,198.5 49.1,198.5 48.9,289.8 77.7,289.8 77.9,198.5 110.8,198.5 110.8,172.3 16.2,172.3 	"/>
	<polygon fill="#FF7F00" points="188.9,214.9 151,214.9 151,172.3 122.3,172.3 122.1,289.8 150.8,289.8 151,241.1 188.9,241.1 
		188.7,289.8 217.4,289.8 217.6,172.3 188.9,172.3 	"/>
	<polygon fill="#FF7F00" points="295.1,263 258.7,263 258.7,240.8 301,240.8 307.2,217.2 258.7,217.2 258.7,196.7 312.7,196.7 
		319.2,172.3 230,172.3 229.8,289.8 287.9,289.8 	"/>
</g>
<polygon fill="#FF7F00" points="1615.8,301.7 1611.7,301.7 1609.7,301.7 1608.5,301.7 1606.5,301.7 1595.4,301.7 1542,301.7 
	1610.8,412.9 1678.1,412.9 1678.1,301.7 "/>
</svg>
